<?xml version="1.0" standalone="no"?>
<!DOCTYPE svg PUBLIC "-//W3C//DTD SVG 20010904//EN"
 "http://www.w3.org/TR/2001/REC-SVG-20010904/DTD/svg10.dtd">
<svg version="1.0" xmlns="http://www.w3.org/2000/svg"
 width="3000.000000pt" height="3000.000000pt" viewBox="0 0 3000.000000 3000.000000"
 preserveAspectRatio="xMidYMid meet">

<g transform="translate(0.000000,3000.000000) scale(0.100000,-0.100000)"
fill="#000000" stroke="none">
<path d="M17735 27234 c-102 -15 -263 -50 -368 -80 -177 -51 -320 -111 -597
-250 -362 -181 -565 -260 -860 -333 -276 -69 -423 -86 -745 -85 -305 0 -403 9
-680 65 -273 54 -523 132 -890 274 -424 165 -782 270 -1075 316 -192 30 -489
33 -625 6 -259 -52 -761 -224 -1115 -382 -1642 -734 -2883 -2168 -3531 -4085
-349 -1029 -526 -2060 -669 -3889 -17 -217 -40 -444 -50 -505 -66 -383 -218
-634 -500 -821 -165 -111 -407 -220 -1260 -570 -720 -296 -1020 -432 -1228
-557 -241 -145 -334 -330 -258 -513 21 -50 110 -133 183 -173 34 -18 283 -106
555 -196 904 -299 1466 -512 3088 -1170 228 -93 325 -138 485 -228 471 -265
584 -305 649 -227 34 40 47 114 47 254 -1 200 -27 374 -161 1042 -100 504
-130 688 -130 816 0 84 1 87 23 87 67 0 154 -115 232 -310 60 -149 119 -345
250 -824 199 -729 320 -1066 462 -1278 124 -188 421 -431 772 -632 350 -201
632 -322 1244 -535 703 -244 970 -319 1304 -367 130 -18 373 -21 463 -5 216
39 521 199 788 414 232 186 411 364 904 898 264 286 366 384 475 459 115 80
180 104 288 104 81 1 97 -2 157 -31 187 -88 293 -198 713 -738 495 -636 767
-927 1035 -1107 201 -136 299 -166 555 -175 634 -21 1431 150 2325 500 399
156 996 426 1079 489 31 23 97 83 147 132 366 367 637 972 875 1961 180 746
216 868 271 931 33 37 61 43 95 19 37 -26 48 -79 47 -225 -2 -197 -26 -354
-160 -1047 -155 -807 -168 -1043 -60 -1088 148 -62 393 60 876 436 231 179
298 226 445 306 476 262 1651 715 2701 1042 323 101 472 228 435 371 -18 68
-57 127 -136 206 -184 184 -556 412 -1350 829 -727 382 -1001 553 -1218 764
-172 166 -291 331 -388 536 -92 196 -138 378 -179 705 -12 91 -44 320 -71 510
-157 1085 -181 1291 -214 1825 -27 429 -65 738 -136 1090 -234 1176 -738 2178
-1521 3025 -318 344 -663 645 -1213 1058 -717 538 -1255 811 -1829 929 -123
25 -150 27 -426 29 -162 1 -308 0 -325 -2z"/>
<path d="M16144 11455 c-131 -23 -170 -38 -509 -185 -218 -94 -387 -151 -555
-186 -128 -27 -357 -25 -474 4 -157 39 -328 131 -463 249 -34 29 -78 60 -99
69 -91 38 -285 56 -365 34 -29 -8 -45 -24 -86 -88 -131 -201 -296 -274 -509
-227 -89 20 -168 48 -361 129 -73 30 -133 50 -133 45 0 -18 100 -207 152 -286
60 -92 148 -186 203 -218 22 -13 72 -33 112 -44 209 -62 342 -161 418 -311 31
-61 69 -196 60 -211 -3 -3 -28 -9 -56 -13 -28 -4 -105 -20 -172 -36 -67 -16
-238 -54 -379 -85 -494 -107 -581 -144 -777 -331 -146 -138 -282 -317 -359
-469 -112 -224 -135 -570 -50 -752 25 -54 86 -119 125 -134 139 -53 525 -16
953 92 238 59 439 125 692 224 220 87 308 111 468 125 120 11 306 5 375 -12
22 -5 139 -40 260 -78 264 -83 362 -107 469 -115 89 -7 74 -10 411 88 333 97
519 124 733 106 205 -16 390 -63 719 -180 360 -129 725 -229 1123 -309 254
-51 342 -62 475 -63 165 -1 245 29 305 113 48 67 77 279 60 438 -30 298 -150
594 -299 743 -170 169 -488 354 -861 502 -188 74 -245 92 -455 142 -200 48
-408 105 -419 115 -5 5 66 120 158 258 171 258 203 315 213 389 18 132 -107
237 -422 356 -310 117 -491 147 -681 112z"/>
<path d="M14920 8029 c-99 -12 -235 -51 -323 -94 -80 -39 -205 -127 -214 -150
-7 -19 72 -116 140 -173 70 -57 185 -116 287 -145 47 -14 175 -39 285 -57 221
-36 299 -56 395 -105 83 -42 194 -81 251 -90 108 -16 198 47 233 163 33 107 6
278 -68 436 -56 119 -53 118 -336 165 -358 59 -483 69 -650 50z"/>
<path d="M9395 7866 c-45 -17 -70 -46 -85 -96 -13 -47 -13 -68 6 -158 97 -473
843 -1554 1722 -2496 359 -384 641 -627 1307 -1126 557 -417 923 -653 1350
-870 290 -147 520 -229 810 -289 266 -55 376 -66 670 -66 290 0 398 11 623 61
214 48 292 78 747 287 138 63 412 184 610 270 727 313 996 450 1345 682 271
179 465 338 704 573 187 183 284 291 529 585 810 971 1291 1670 1428 2077 44
132 51 264 17 330 -42 82 -117 110 -244 90 -157 -25 -310 -102 -432 -215 -42
-38 -141 -144 -220 -235 -332 -378 -464 -512 -677 -687 -100 -82 -574 -454
-680 -534 -434 -326 -780 -501 -1134 -576 -109 -23 -151 -27 -306 -27 -192 0
-272 11 -441 60 -253 73 -392 174 -824 599 -469 462 -564 519 -975 584 -307
48 -502 47 -682 -4 -127 -37 -326 -138 -493 -251 -276 -186 -328 -220 -410
-264 -45 -25 -118 -72 -163 -104 -289 -210 -481 -301 -723 -342 -131 -22 -400
-15 -527 15 -139 32 -261 77 -412 151 -366 180 -548 342 -1094 975 -583 676
-799 876 -1056 980 -86 35 -225 45 -290 21z"/>
</g>
</svg>
